Coordinates
version=1
nRows=6
nColumns=34
inDegrees=yes

Units are S.I. units (second, meters, Newtons, ...)
If the header above contains a line with 'inDegrees', this indicates whether rotational values are in degrees (yes) or radians (no).

endheader
time	pelvis_tilt	pelvis_list	pelvis_rotation	pelvis_tx	pelvis_ty	pelvis_tz	hip_flexion_r	hip_adduction_r	hip_rotation_r	knee_angle_r	ankle_angle_r	subtalar_angle_r	mtp_angle_r	hip_flexion_l	hip_adduction_l	hip_rotation_l	knee_angle_l	ankle_angle_l	subtalar_angle_l	mtp_angle_l	lumbar_extension	lumbar_bending	lumbar_rotation	arm_flex_r	arm_add_r	arm_rot_r	elbow_flex_r	pro_sup_r	arm_flex_l	arm_add_l	arm_rot_l	elbow_flex_l	pro_sup_l
      0.00000000	      1.99642745	     -3.59893351	    -69.65823724	      0.22567625	      1.05705369	     -0.23313280	    -14.05238475	     -3.54442740	    -16.02667516	     14.76386626	     -0.73825937	     -4.69403271	      0.00000000	      3.45997422	      2.21702533	     25.19598455	     11.54523544	      0.18217111	      2.39326220	      0.00000000	     -4.66659268	    -20.84481881	    -60.51780990	    -21.24494154	     -6.72706036	    -10.59091217	     29.58625473	    107.84306316	     20.19471572	    -33.53943707	    -60.62025569	    100.62088336	    110.42877396
      0.01666670	      2.00069358	     -3.58704280	    -69.67661988	      0.22540737	      1.05700058	     -0.23329233	    -14.04260427	     -3.53783204	    -16.03845724	     14.75223552	     -0.73858880	     -4.69215102	      0.00000000	      3.46736608	      2.21627533	     25.19500299	     11.54165573	      0.18635400	      2.39361788	      0.00000000	     -4.70721073	    -20.84628016	    -60.52788374	    -21.24621303	     -6.74510478	    -10.60182585	     29.58191534	    107.84645820	     20.19260097	    -33.53430005	    -60.62121123	    100.61637243	    110.42203317
      0.03333330	      2.00146403	     -3.59093016	    -69.67563291	      0.22544209	      1.05702900	     -0.23320461	    -14.04200821	     -3.53978172	    -16.03854747	     14.75158921	     -0.73869789	     -4.69207069	      0.00000000	      3.46987941	      2.21518427	     25.19510000	     11.54084989	      0.18663933	      2.39351986	      0.00000000	     -4.70737724	    -20.84588742	    -60.52768250	    -21.24589892	     -6.74427057	    -10.60179552	     29.58190127	    107.84664841	     20.19263454	    -33.53465947	    -60.62137770	    100.61631987	    110.42179268
      0.05000000	      2.00256919	     -3.59062386	    -69.67561555	      0.22540741	      1.05699461	     -0.23332924	    -14.04372881	     -3.53948896	    -16.03883775	     14.75242320	     -0.73908782	     -4.69180708	      0.00000000	      3.47054815	      2.21450692	     25.19505916	     11.54079806	      0.18695053	      2.39342391	      0.00000000	     -4.70763686	    -20.84584262	    -60.52760493	    -21.24534508	     -6.74386763	    -10.60178319	     29.58196083	    107.84687765	     20.19245433	    -33.53422399	    -60.62124373	    100.61611804	    110.42153807
      0.06666670	      2.00416251	     -3.60197245	    -69.67470314	      0.22534725	      1.05700884	     -0.23346334	    -14.04368314	     -3.54050535	    -16.03982997	     14.75344515	     -0.74111164	     -4.69044183	      0.00000000	      3.47758262	      2.21494043	     25.19479084	     11.53820827	      0.18865086	      2.39306561	      0.00000000	     -4.71151358	    -20.84608222	    -60.52817431	    -21.24074971	     -6.74019577	    -10.60093443	     29.58297749	    107.84818689	     20.19111351	    -33.52981914	    -60.61923675	    100.61422123	    110.42030496
      0.08333330	      2.00657955	     -3.60249511	    -69.67482793	      0.22534355	      1.05701079	     -0.23353905	    -14.04232171	     -3.53978809	    -16.04010576	     14.75347907	     -0.74175903	     -4.68995538	      0.00000000	      3.47649075	      2.21399977	     25.19462015	     11.53905922	      0.18906094	      2.39295600	      0.00000000	     -4.71258714	    -20.84574767	    -60.52912761	    -21.23934840	     -6.73919255	    -10.60062573	     29.58328275	    107.84855742	     20.19060261	    -33.52778446	    -60.61807744	    100.61364478	    110.42001196
